<?xml version="1.0" encoding="UTF-8"?>
<svg width="1200" height="1600" viewBox="0 0 1200 1600" fill="none" xmlns="http://www.w3.org/2000/svg">
  <defs>
    <linearGradient id="bg" x1="0" y1="0" x2="1200" y2="1600" gradientUnits="userSpaceOnUse">
      <stop stop-color="#1A0505"/>
      <stop offset="1" stop-color="#510909"/>
    </linearGradient>
    <linearGradient id="beam" x1="600" y1="120" x2="600" y2="930" gradientUnits="userSpaceOnUse">
      <stop stop-color="#FFD166" stop-opacity="0.95"/>
      <stop offset="1" stop-color="#FFD166" stop-opacity="0"/>
    </linearGradient>
  </defs>
  <rect width="1200" height="1600" fill="url(#bg)"/>
  <circle cx="600" cy="220" r="520" fill="#F94144" fill-opacity="0.18"/>
  <path d="M600 120L920 930H280L600 120Z" fill="url(#beam)"/>
  <circle cx="600" cy="520" r="180" fill="#111111" stroke="#FFD166" stroke-width="18"/>
  <path d="M600 390L638 500L754 500L660 569L696 678L600 610L504 678L540 569L446 500L562 500L600 390Z" fill="#FFD166"/>
  <rect x="92" y="980" width="1016" height="422" rx="42" fill="#0F172A" fill-opacity="0.86" stroke="#FFD166" stroke-opacity="0.55" stroke-width="4"/>
  <text x="600" y="1108" text-anchor="middle" fill="#FFE9A3" font-size="96" font-weight="700">НЕ БУДЬ</text>
  <text x="600" y="1214" text-anchor="middle" fill="#FFE9A3" font-size="118" font-weight="800">ВРАГОМ</text>
  <text x="600" y="1322" text-anchor="middle" fill="#FFFFFF" font-size="76" font-weight="700">ПОЛУЧИ РОЛЬ</text>
  <text x="600" y="1410" text-anchor="middle" fill="#FFD166" font-size="58" font-weight="700">СТАНЬ ТОВАРИЩЕМ</text>
  <text x="600" y="1510" text-anchor="middle" fill="#F8FAFC" font-size="34">Жми кнопку в welcome-канале, укажи kills и отправь скрин</text>
</svg>